<svg xmlns:xlink="http://www.w3.org/1999/xlink" xmlns="http://www.w3.org/2000/svg" fill="currentColor" height="24" viewBox="0 0 24 24" width="24" focusable="false" aria-hidden="true" style="pointer-events: none; display: inherit; width: 100%; height: 100%;"><path d="M11.72 11.928A4.004 4.004 0 0015 7.998c0-2.21-1.79-4-4-4s-4 1.79-4 4c0 1.96 1.42 3.59 3.28 3.93-5.51.28-8.28 3.83-8.28 8.07L20 20c0-4.24-2.77-7.79-8.28-8.07Z" fill="#AAAAAA"></path><path clip-rule="evenodd" d="M19.263 4.75a5.5 5.5 0 00-2.013-2.014l1-1.732a7.5 7.5 0 010 12.99l-1-1.732a5.5 5.5 0 002.013-7.513Z" fill-rule="evenodd" fill="#AAAAAA"></path><path clip-rule="evenodd" d="M16.665 6.25a2.501 2.501 0 00-.915-.916l1-1.732a4.5 4.5 0 010 7.794l-1-1.732a2.501 2.501 0 00.915-3.415Z" fill-rule="evenodd" fill="#AAAAAA"></path></svg>